<svg xmlns="http://www.w3.org/2000/svg" version="1.1" xmlns:xlink="http://www.w3.org/1999/xlink" xmlns:svgjs="http://svgjs.com/svgjs" width="1440" height="560" preserveAspectRatio="none" viewBox="0 0 1440 560"><g mask="url(&quot;#SvgjsMask1033&quot;)" fill="none"><rect width="1440" height="560" x="0" y="0" fill="rgba(103, 162, 249, 1)"></rect><path d="M 0,182 C 57.6,164 172.8,76.4 288,92 C 403.2,107.6 460.8,253.8 576,260 C 691.2,266.2 748.8,143.6 864,123 C 979.2,102.4 1036.8,159 1152,157 C 1267.2,155 1382.4,121.8 1440,113L1440 560L0 560z" fill="rgba(144, 174, 248, 1)"></path><path d="M 0,466 C 57.6,446.8 172.8,362.8 288,370 C 403.2,377.2 460.8,519 576,502 C 691.2,485 748.8,296.8 864,285 C 979.2,273.2 1036.8,416.2 1152,443 C 1267.2,469.8 1382.4,423.8 1440,419L1440 560L0 560z" fill="rgba(158, 186, 224, 1)"></path></g><defs><mask id="SvgjsMask1033"><rect width="1440" height="560" fill="#ffffff"></rect></mask></defs></svg>